<?xml version="1.0" standalone="no"?>
<!DOCTYPE svg PUBLIC "-//W3C//DTD SVG 20010904//EN"
 "http://www.w3.org/TR/2001/REC-SVG-20010904/DTD/svg10.dtd">
<svg version="1.0" xmlns="http://www.w3.org/2000/svg"
 width="200.000000pt" height="200.000000pt" viewBox="0 0 200.000000 200.000000"
 preserveAspectRatio="xMidYMid meet">
<metadata>
Created by potrace 1.16, written by Peter Selinger 2001-2019
</metadata>
<g transform="translate(0.000000,200.000000) scale(0.100000,-0.100000)"
fill="#000000" stroke="none">
<path d="M834 1400 c-212 -28 -429 -115 -592 -237 -62 -47 -142 -121 -142
-132 0 -4 11 -18 24 -30 l24 -23 76 64 c384 321 900 378 1335 146 77 -40 194
-119 221 -148 3 -3 20 -18 38 -34 l32 -30 25 24 c14 13 25 28 25 33 0 21 -139
133 -244 197 -233 141 -545 206 -822 170z"/>
<path d="M808 1075 c-136 -27 -285 -102 -393 -197 l-47 -41 32 -31 c19 -20 33
-27 38 -20 22 32 139 113 217 150 114 53 207 74 332 74 192 0 360 -62 514
-191 l46 -38 28 29 27 28 -33 31 c-104 95 -262 177 -401 205 -93 19 -266 20
-360 1z"/>
<path d="M1212 755 c-122 -102 -307 -111 -442 -20 -29 19 -55 35 -59 35 -4 0
-18 -12 -32 -26 l-24 -26 30 -25 c17 -14 63 -41 104 -60 125 -59 270 -57 399
7 32 16 71 43 87 60 l29 30 -24 25 c-29 31 -31 31 -68 0z"/>
</g>
</svg>
